# xmcd
#
# Track frame offsets:
#	150
#	18590
#	39666
#	57974
#	75532
#	91530
#	116715
#	141095
#	156086
#	170289
#
# Disc length: 2667 seconds
# Revision: 0
# Processed by: cddbd v1.5.2PL0 Copyright (c) Steve Scherf et al.
# Submitted via: dBpowerAMP V12.0
#
DISCID=740a690a
DTITLE=The Blues Broads - The Blues Broads
DYEAR=2012
DGENRE=Blues Female
TTITLE0=Livin' the Blues
TTITLE1=Bring Me Your Love
TTITLE2=Two Bit Texas Town
TTITLE3=River Deep
TTITLE4=Blue Highway
TTITLE5=It Won't Be Long
TTITLE6=Walk Away
TTITLE7=Mighty Love
TTITLE8=Jesus, I'll Never Forget
TTITLE9=Oh Happy Day
EXTD=
EXTT0=
EXTT1=
EXTT2=
EXTT3=
EXTT4=
EXTT5=
EXTT6=
EXTT7=
EXTT8=
EXTT9=
PLAYORDER=
